<svg xmlns="http://www.w3.org/2000/svg" width="16" height="16">
    <path fill-rule="nonzero" d="M7.5858 7l-1.293-1.2929c-.3904-.3905-.3904-1.0237 0-1.4142.3906-.3905 1.0238-.3905 1.4143 0l3 3c.3905.3905.3905 1.0237 0 1.4142l-3 3c-.3905.3905-1.0237.3905-1.4142 0-.3905-.3905-.3905-1.0237 0-1.4142L7.5858 9H1c-.5523 0-1-.4477-1-1s.4477-1 1-1h6.5858zM14 2H8c-.5523 0-1-.4477-1-1s.4477-1 1-1h6.2222C15.2041 0 16 .796 16 1.7778v12.4444C16 15.2041 15.204 16 14.2222 16H8c-.5523 0-1-.4477-1-1s.4477-1 1-1h6V2z"/>
</svg>